<?xml version="1.0" encoding="UTF-8" standalone="no"?>
<!-- Created with Inkscape (http://www.inkscape.org/) -->

<svg
   version="1.1"
   id="svg2"
   xml:space="preserve"
   width="116.53933"
   height="116.53933"
   viewBox="0 0 116.53933 116.53933"
   sodipodi:docname="MOD-favicon-white.png.svg"
   inkscape:version="1.1.2 (0a00cf5339, 2022-02-04)"
   xmlns:inkscape="http://www.inkscape.org/namespaces/inkscape"
   xmlns:sodipodi="http://sodipodi.sourceforge.net/DTD/sodipodi-0.dtd"
   xmlns="http://www.w3.org/2000/svg"
   xmlns:svg="http://www.w3.org/2000/svg"><defs
     id="defs6"><clipPath
       clipPathUnits="userSpaceOnUse"
       id="clipPath16"><path
         d="M 0,87.404 H 87.404 V 0 H 0 Z"
         id="path14" /></clipPath></defs><sodipodi:namedview
     id="namedview4"
     pagecolor="#ffffff"
     bordercolor="#666666"
     borderopacity="1.0"
     inkscape:pageshadow="2"
     inkscape:pageopacity="0.0"
     inkscape:pagecheckerboard="0"
     showgrid="false"
     inkscape:zoom="5.0969917"
     inkscape:cx="44.634171"
     inkscape:cy="58.367762"
     inkscape:current-layer="g8" /><g
     id="g8"
     inkscape:groupmode="layer"
     inkscape:label="favicon-dark"
     transform="matrix(1.3333333,0,0,-1.3333333,0,116.53933)"><g
       id="g12"
       clip-path="url(#clipPath16)"
       style="fill:#ffffff"><g
         id="g18"
         transform="translate(56.1243,45.8333)"
         style="fill:#ffffff"><path
           d="m 0,0 c -1.128,-2.085 -2.183,-4.047 -3.074,-5.72 -2.108,-3.957 -5.932,-7.024 -10.821,-6.327 -0.914,0.13 -1.787,0.395 -2.607,0.762 l -1.337,0.724 c -1.208,0.779 -2.238,1.811 -3.017,3.018 l -0.717,1.325 c -0.371,0.828 -0.638,1.71 -0.768,2.634 -0.591,4.198 1.631,7.533 4.75,9.781 L 9.258,19.602 Z M 31.026,-1.753 6.71,8.16 12.511,20.442 c 0.339,0.673 0.189,1.498 -0.382,2.068 -0.575,0.575 -1.408,0.722 -2.084,0.373 l -12.109,-6.046 -9.98,24.48 c -0.138,0.339 -0.618,0.339 -0.756,0 l -10.646,-26.115 -12.187,6.599 c -0.386,0.209 -0.93,-0.335 -0.721,-0.721 L -29.755,8.893 -55.87,-1.753 c -0.339,-0.138 -0.339,-0.618 0,-0.756 l 26.115,-10.646 -6.599,-12.187 c -0.209,-0.386 0.335,-0.93 0.721,-0.721 l 12.187,6.599 10.646,-26.115 c 0.138,-0.339 0.618,-0.339 0.756,0 l 10.646,26.115 12.187,-6.599 c 0.386,-0.209 0.93,0.335 0.721,0.721 l -6.599,12.187 26.115,10.646 c 0.339,0.138 0.339,0.618 0,0.756"
           style="fill:#ffffff;fill-opacity:1;fill-rule:nonzero;stroke:none"
           id="path20" /></g><g
         id="g22"
         transform="translate(43.743,48.2287)"
         style="fill:#ffffff"><path
           d="m 0,0 c -2.496,0 -4.526,-2.03 -4.526,-4.526 0,-2.496 2.03,-4.527 4.526,-4.527 2.496,0 4.526,2.031 4.526,4.527 C 4.526,-2.03 2.496,0 0,0"
           style="fill:#ffffff;fill-opacity:1;fill-rule:nonzero;stroke:none"
           id="path24" /></g></g></g></svg>
