<?xml version="1.0" encoding="UTF-8" standalone="no"?>
<svg
   height="87.40332pt"
   viewBox="0 0 325.22753 87.403317"
   width="325.22754pt"
   version="1.1"
   id="svg67"
   sodipodi:docname="kompassi_provided.svg"
   inkscape:version="1.1.2 (0a00cf5339, 2022-02-04)"
   xmlns:inkscape="http://www.inkscape.org/namespaces/inkscape"
   xmlns:sodipodi="http://sodipodi.sourceforge.net/DTD/sodipodi-0.dtd"
   xmlns="http://www.w3.org/2000/svg"
   xmlns:svg="http://www.w3.org/2000/svg">
  <defs
     id="defs71" />
  <sodipodi:namedview
     id="namedview69"
     pagecolor="#ffffff"
     bordercolor="#666666"
     borderopacity="1.0"
     inkscape:pageshadow="2"
     inkscape:pageopacity="0.0"
     inkscape:pagecheckerboard="0"
     inkscape:document-units="pt"
     showgrid="false"
     inkscape:snap-bbox="true"
     showguides="true"
     inkscape:guide-bbox="true"
     inkscape:bbox-paths="true"
     inkscape:bbox-nodes="true"
     fit-margin-top="0"
     fit-margin-left="0"
     fit-margin-right="0"
     fit-margin-bottom="0"
     inkscape:zoom="0.94651487"
     inkscape:cx="123.61137"
     inkscape:cy="208.66022"
     inkscape:current-layer="svg67">
    <sodipodi:guide
       position="1.9700642e-06,43.822387"
       orientation="1,0"
       id="guide1034" />
  </sodipodi:namedview>
  <clipPath
     id="a">
    <path
       d="M 0,0 H 88 V 87.40625 H 0 Z m 0,0"
       id="path2" />
  </clipPath>
  <clipPath
     id="b">
    <path
       d="m 313,20 h 11.97266 V 38 H 313 Z m 0,0"
       id="path5" />
  </clipPath>
  <clipPath
     id="c">
    <path
       d="m 320,42 h 4.97266 V 75 H 320 Z m 0,0"
       id="path8" />
  </clipPath>
  <g
     id="g1224"
     transform="translate(237.82422)">
    <g
       id="g1176">
      <g
         clip-path="url(#a)"
         id="g13">
        <path
           d="m 56.125,41.570312 c -1.128906,2.085938 -2.183594,4.046876 -3.074219,5.722657 -2.109375,3.957031 -5.933593,7.023437 -10.820312,6.324219 -0.914063,-0.128907 -1.789063,-0.394532 -2.609375,-0.761719 l -1.335938,-0.722657 c -1.207031,-0.78125 -2.238281,-1.8125 -3.015625,-3.019531 l -0.71875,-1.324219 c -0.371093,-0.828124 -0.636719,-1.710937 -0.765625,-2.632812 -0.59375,-4.199219 1.628906,-7.535156 4.75,-9.78125 L 65.382812,21.96875 Z m 31.023438,1.753907 -24.3125,-9.914063 5.800781,-12.28125 c 0.335937,-0.671875 0.1875,-1.496094 -0.382813,-2.066406 -0.574218,-0.578125 -1.410156,-0.722656 -2.085937,-0.375 L 54.058594,24.734375 44.082031,0.253906 c -0.140625,-0.3398435 -0.621093,-0.3398435 -0.757812,0 L 32.679688,26.371094 20.492188,19.769531 C 20.105469,19.5625 19.5625,20.105469 19.769531,20.492188 l 6.601563,12.1875 -26.117188,10.644531 c -0.3398435,0.136719 -0.3398435,0.617187 0,0.757812 l 26.117188,10.644531 -6.601563,12.1875 c -0.207031,0.386719 0.335938,0.929688 0.722657,0.71875 l 12.1875,-6.597656 10.644531,26.113282 c 0.136719,0.339843 0.617187,0.339843 0.757812,0 l 10.644531,-26.113282 12.1875,6.597656 c 0.386719,0.210938 0.929688,-0.332031 0.71875,-0.71875 l -6.597656,-12.1875 26.113282,-10.644531 c 0.339843,-0.140625 0.339843,-0.621093 0,-0.757812"
           fill="#033245"
           id="path11" />
      </g>
    </g>
    <path
       d="m 43.742188,39.175781 c -2.496094,0 -4.523438,2.03125 -4.523438,4.527344 0,2.496094 2.027344,4.527344 4.523438,4.527344 2.496093,0 4.527343,-2.03125 4.527343,-4.527344 0,-2.496094 -2.03125,-4.527344 -4.527343,-4.527344"
       id="path15"
       style="fill:#033245" />
  </g>
  <g
     id="g1207"
     transform="translate(-111.58984)">
    <path
       d="m 118.03906,28.773438 c 1.6211,0 2.83203,-1.257813 2.83203,-2.953126 0,-1.644531 -1.21093,-2.855468 -2.83203,-2.855468 -1.64843,0 -2.85937,1.234375 -2.85937,2.878906 0,1.695312 1.21094,2.929688 2.85937,2.929688 m -6.37109,-2.757813 c 0,-3.535156 2.51953,-6.222656 5.88672,-6.222656 1.69531,0 2.90234,0.75 3.60547,1.597656 v -6.832031 h 3.53515 v 17.027344 h -3.53515 v -1.238282 c -0.84766,0.96875 -2.15235,1.597656 -3.70313,1.597656 -3.29297,0 -5.78906,-2.539062 -5.78906,-5.929687"
       id="path17"
       style="fill:#033245" />
    <path
       d="m 134.57812,28.773438 c 1.625,0 2.83594,-1.257813 2.83594,-2.953126 0,-1.644531 -1.21094,-2.855468 -2.83594,-2.855468 -1.64453,0 -2.85546,1.234375 -2.85546,2.878906 0,1.695312 1.21093,2.929688 2.85546,2.929688 m -6.36718,-2.832032 c 0,-3.4375 2.51953,-6.148437 5.88281,-6.148437 1.81641,0 2.95703,0.796875 3.60937,1.691406 v -1.257813 h 3.53516 v 11.285157 h -3.53516 v -1.234375 c -0.82421,1.015625 -2.15625,1.667968 -3.77734,1.667968 -3.22266,0 -5.71484,-2.539062 -5.71484,-6.003906"
       id="path19"
       style="fill:#033245" />
    <path
       d="m 145.89062,26.472656 v -2.976562 h -1.42968 v -3.148438 h 1.42968 v -3.246094 h 3.53516 v 3.246094 h 3.63281 v 3.148438 h -3.63281 v 2.929687 c 0,1.355469 0.55859,2.011719 1.74609,2.011719 0.62891,0 1.30469,-0.148438 1.86329,-0.4375 h 0.0234 v 3.21875 c -0.84765,0.390625 -1.76562,0.558594 -2.83203,0.558594 -3.0039,0 -4.33594,-1.574219 -4.33594,-5.304688"
       id="path21"
       style="fill:#033245" />
    <path
       d="m 162.57812,28.773438 c 1.6211,0 2.83204,-1.257813 2.83204,-2.953126 0,-1.644531 -1.21094,-2.855468 -2.83204,-2.855468 -1.64453,0 -2.85546,1.234375 -2.85546,2.878906 0,1.695312 1.21093,2.929688 2.85546,2.929688 m -6.36718,-2.832032 c 0,-3.4375 2.51562,-6.148437 5.88281,-6.148437 1.81641,0 2.95312,0.796875 3.60937,1.691406 v -1.257813 h 3.53516 v 11.285157 h -3.53516 v -1.234375 c -0.82421,1.015625 -2.15625,1.667968 -3.77734,1.667968 -3.22266,0 -5.71484,-2.539062 -5.71484,-6.003906"
       id="path23"
       style="fill:#033245" />
    <path
       d="m 186.28906,28.773438 c 1.6211,0 2.83203,-1.257813 2.83203,-2.953126 0,-1.644531 -1.21093,-2.855468 -2.85547,-2.855468 -1.625,0 -2.83203,1.234375 -2.83203,2.90625 0,1.667968 1.20703,2.902344 2.85547,2.902344 m -6.68359,-8.546876 h 3.53515 v 1.257813 c 0.84766,-1.0625 2.15625,-1.691406 3.75391,-1.691406 3.24609,0 5.73828,2.542969 5.73828,5.980469 0,3.414062 -2.46875,6.171874 -5.85937,6.171874 -1.71875,0 -2.90625,-0.699218 -3.63282,-1.523437 v 6.902344 h -3.53515 z m 0,0"
       id="path25"
       style="fill:#033245" />
    <path
       d="m 196.14844,20.226562 h 3.53515 v 1.378907 c 0.70313,-1.113281 1.88672,-1.742188 3.4375,-1.644531 v 3.171874 c -1.96093,-0.04687 -3.4375,0.847657 -3.4375,3.558594 v 4.820313 h -3.53515 z m 0,0"
       id="path27"
       style="fill:#033245" />
    <path
       d="m 211.86328,28.773438 c 1.60156,0 2.78516,-1.257813 2.78516,-2.953126 0,-1.644531 -1.1836,-2.855468 -2.78516,-2.855468 -1.62109,0 -2.80859,1.234375 -2.80859,2.878906 0,1.695312 1.1875,2.929688 2.80859,2.929688 m -6.31641,-2.902344 c 0,-3.441406 2.73438,-6.078125 6.31641,-6.078125 3.5625,0 6.29688,2.589843 6.29688,6.027343 0,3.4375 -2.73438,6.125 -6.32032,6.125 -3.58203,0 -6.29297,-2.660156 -6.29297,-6.074218"
       id="path29"
       style="fill:#033245" />
    <path
       d="m 219.73828,20.226562 h 3.63281 l 2.17969,4.625 c 0.14453,0.289063 0.26563,0.605469 0.36328,0.871094 0.0703,-0.265625 0.21875,-0.582031 0.33985,-0.871094 l 2.15234,-4.625 h 3.53516 l -6.05079,11.722657 h -0.0508 z m 0,0"
       id="path31"
       style="fill:#033245" />
    <path
       d="m 234.85156,20.226562 h 3.53516 v 11.285157 h -3.53516 z m 1.76563,-6.320312 c 1.28515,0 2.23047,0.921875 2.23047,2.15625 0,1.210938 -0.94532,2.132812 -2.23047,2.132812 -1.28125,0 -2.22657,-0.921874 -2.22657,-2.132812 0,-1.234375 0.94532,-2.15625 2.22657,-2.15625"
       id="path33"
       style="fill:#033245" />
    <path
       d="m 248.39062,28.773438 c 1.6211,0 2.83204,-1.257813 2.83204,-2.953126 0,-1.644531 -1.21094,-2.855468 -2.83204,-2.855468 -1.64843,0 -2.85937,1.234375 -2.85937,2.878906 0,1.695312 1.21094,2.929688 2.85937,2.929688 m -6.37109,-2.757813 c 0,-3.535156 2.51953,-6.222656 5.88672,-6.222656 1.69531,0 2.90234,0.75 3.60547,1.597656 v -6.832031 h 3.53515 v 17.027344 h -3.53515 v -1.238282 c -0.84766,0.96875 -2.15235,1.597656 -3.70313,1.597656 -3.29297,0 -5.78906,-2.539062 -5.78906,-5.929687"
       id="path35"
       style="fill:#033245" />
    <path
       d="m 267.47266,24.632812 c -0.19141,-1.257812 -1.3086,-1.960937 -2.6875,-1.960937 -1.45313,0 -2.54297,0.777344 -2.8086,1.960937 z m -8.91016,1.113282 c 0,-3.535156 2.66406,-5.957032 6.24609,-5.957032 3.73047,0 6.00782,2.640626 5.88672,6.878907 h -8.74219 c 0.28907,1.257812 1.59766,2.109375 3.70313,2.109375 1.40625,0 3.02734,-0.390625 4.14062,-0.945313 h 0.0274 v 3.027344 c -0.92188,0.507813 -2.69141,1.0625 -4.53125,1.0625 -3.96875,0 -6.73047,-2.515625 -6.73047,-6.175781"
       id="path37"
       style="fill:#033245" />
    <path
       d="m 279.99609,28.773438 c 1.6211,0 2.83203,-1.257813 2.83203,-2.953126 0,-1.644531 -1.21093,-2.855468 -2.83203,-2.855468 -1.64453,0 -2.85547,1.234375 -2.85547,2.878906 0,1.695312 1.21094,2.929688 2.85547,2.929688 m -6.36718,-2.757813 c 0,-3.535156 2.51562,-6.222656 5.88281,-6.222656 1.69531,0 2.90625,0.75 3.60937,1.597656 v -6.832031 h 3.53516 v 17.027344 h -3.53516 v -1.238282 c -0.84765,0.96875 -2.15625,1.597656 -3.70703,1.597656 -3.29297,0 -5.78515,-2.539062 -5.78515,-5.929687"
       id="path39"
       style="fill:#033245" />
    <path
       d="m 303.70703,28.773438 c 1.62109,0 2.83203,-1.257813 2.83203,-2.953126 0,-1.644531 -1.21094,-2.855468 -2.83203,-2.855468 -1.64844,0 -2.85547,1.234375 -2.85547,2.878906 0,1.695312 1.20703,2.929688 2.85547,2.929688 m -3.14844,1.503906 v 1.308594 h -3.53515 V 14.558594 h 3.53515 v 6.804687 c 0.75,-0.820312 2.01172,-1.570312 3.85157,-1.570312 3.39062,0 5.64062,2.445312 5.64062,5.882812 0,3.679688 -2.54297,6.269531 -5.71484,6.269531 -1.59766,0 -2.90625,-0.652343 -3.77735,-1.667968"
       id="path41"
       style="fill:#033245" />
    <g
       clip-path="url(#b)"
       id="g47">
      <path
         d="m 314.60547,36.886719 v -3.4375 h 0.0508 c 1.11328,0.507812 2.10547,0.773437 3.31641,0.773437 3.46484,0 3.46484,-2.152344 3.46484,-3.125 v -0.894531 c -0.70313,1.117187 -1.86719,1.746094 -3.46484,1.746094 -2.90625,0 -4.57422,-2.035157 -4.57422,-5.789063 v -5.933594 h 3.53515 v 5.472657 c 0,1.9375 0.67578,2.90625 2.05469,2.90625 1.55078,0 2.44922,-1.234375 2.44922,-3.269531 v -5.109376 h 3.53516 v 10.871094 c 0,3.996094 -2.4961,6.539063 -6.49219,6.539063 -1.42578,0 -2.73438,-0.3125 -3.875,-0.75"
         fill="#033245"
         id="path45" />
    </g>
  </g>
  <g
     id="g1218"
     transform="translate(-111.58984)">
    <path
       d="M 129.54687,73.53125 114.82031,58.527344 v 14.636718 c 0,0.597657 -0.32422,0.921876 -0.92187,0.921876 h -1.38672 c -0.59766,0 -0.92188,-0.324219 -0.92188,-0.921876 V 43.753906 c 0,-0.601562 0.32422,-0.921875 0.92188,-0.921875 h 1.38672 c 0.59765,0 0.92187,0.320313 0.92187,0.921875 v 14.128906 l 14.3125,-14.542968 c 0.32422,-0.371094 0.64844,-0.507813 1.15235,-0.507813 h 1.80078 c 0.73828,0 0.96875,0.644531 0.46484,1.105469 l -13.94531,14.128906 14.54297,14.867188 c 0.50781,0.507812 0.23047,1.152344 -0.50782,1.152344 h -1.9375 c -0.46093,0 -0.83203,-0.136719 -1.15625,-0.554688"
       fill="#033245"
       id="path49" />
    <path
       d="m 152.48047,71.546875 c 7.20312,0 12.51172,-5.492187 12.51172,-13.066406 0,-7.617188 -5.3086,-13.109375 -12.51172,-13.109375 -7.2461,0 -12.5586,5.492187 -12.5586,13.109375 0,7.574219 5.3125,13.066406 12.5586,13.066406 M 136.55469,58.480469 c 0,-8.863281 6.41797,-16.15625 15.92578,-16.15625 9.32422,0 15.88281,7.15625 15.88281,16.15625 0,8.910156 -6.41797,16.113281 -15.88281,16.113281 -9.55469,0 -15.92578,-7.203125 -15.92578,-16.113281"
       fill="#033245"
       id="path51" />
    <path
       d="m 173.91406,72.976562 4.80078,-29.359374 c 0.0937,-0.554688 0.50782,-0.785157 0.92578,-0.785157 0.46094,0 0.69141,0.08984 0.96875,0.554688 l 10.71094,23.035156 10.61719,-22.992187 c 0.23047,-0.460938 0.55469,-0.597657 0.96875,-0.597657 0.46484,0 0.83203,0.230469 0.97266,0.832031 l 4.7539,29.3125 c 0.0937,0.738282 -0.23047,1.109376 -0.92187,1.109376 h -1.2461 c -0.60156,0 -0.97265,-0.277344 -1.0625,-0.921876 l -3.55468,-22.113281 -9.78907,20.957031 c -0.13672,0.324219 -0.36718,0.507813 -0.73828,0.507813 -0.41406,0 -0.60156,-0.183594 -0.78515,-0.554687 L 180.75,51.050781 177.19141,73.164062 c -0.0898,0.644532 -0.50782,0.921876 -1.10547,0.921876 h -1.2461 c -0.64843,0 -1.01562,-0.371094 -0.92578,-1.109376"
       fill="#033245"
       id="path53" />
    <path
       d="M 216.52734,73.164062 V 43.753906 c 0,-0.601562 0.32422,-0.921875 0.92188,-0.921875 h 8.95703 c 6.74219,0 11.17187,4.246094 11.17187,10.203125 0,5.863282 -4.42968,10.109375 -11.03125,10.109375 h -1.15625 c -0.6914,0 -1.01562,-0.277343 -1.19921,-0.832031 l -0.3711,-1.058594 c -0.23047,-0.742187 0.0937,-1.109375 0.78516,-1.109375 h 1.80078 c 4.89453,0 7.94141,-2.957031 7.94141,-7.109375 0,-4.203125 -3.04688,-7.15625 -7.94141,-7.15625 h -6.64844 v 27.285156 c 0,0.597657 -0.32031,0.921876 -0.92187,0.921876 h -1.38672 c -0.59766,0 -0.92188,-0.324219 -0.92188,-0.921876"
       fill="#033245"
       id="path55" />
    <path
       d="m 259.23047,62.542969 -6.32422,-14.125 -6.32422,14.125 z m -20.86719,10.527343 13.66797,-29.960937 c 0.23047,-0.507813 0.46094,-0.648437 0.92187,-0.648437 0.46094,0 0.69141,0.140624 0.92188,0.648437 l 13.66797,29.960937 c 0.27344,0.554688 0,1.015626 -0.64844,1.015626 h -1.61719 c -0.55078,0 -1.01562,-0.230469 -1.24609,-0.785157 l -3.41406,-7.753906 h -15.42188 l -3.41406,7.753906 c -0.23047,0.554688 -0.69141,0.785157 -1.29297,0.785157 h -1.47656 c -0.64844,0 -0.92578,-0.460938 -0.64844,-1.015626"
       fill="#033245"
       id="path57" />
    <g
       clip-path="url(#c)"
       id="g61">
      <path
         d="M 320.83203,73.164062 V 43.753906 c 0,-0.601562 0.32422,-0.921875 0.92188,-0.921875 h 1.38671 c 0.60157,0 0.92188,0.320313 0.92188,0.921875 v 29.410156 c 0,0.597657 -0.32031,0.921876 -0.92188,0.921876 h -1.38671 c -0.59766,0 -0.92188,-0.324219 -0.92188,-0.921876"
         fill="#033245"
         id="path59" />
    </g>
    <path
       d="m 311.78906,59.621094 c -0.6289,-0.582032 -1.35547,-1.074219 -2.16015,-1.460938 -0.82422,-0.398437 -1.67579,-0.757812 -2.53516,-1.066406 -0.86719,-0.320312 -1.72656,-0.625 -2.5625,-0.929688 -0.85938,-0.304687 -1.63672,-0.671874 -2.30859,-1.085937 -0.69532,-0.425781 -1.26563,-0.953125 -1.69532,-1.558594 -0.4414,-0.625 -0.66797,-1.417969 -0.66797,-2.359375 0,-0.707031 0.11719,-1.375 0.35547,-1.992187 0.23828,-0.621094 0.59375,-1.171875 1.0625,-1.640625 0.46875,-0.46875 1.0625,-0.839844 1.76563,-1.101563 0.6914,-0.257812 1.5039,-0.390625 2.41406,-0.390625 0.95313,0 1.78906,0.132813 2.48438,0.390625 0.67578,0.253907 1.26562,0.535157 1.75,0.839844 0.47656,0.300781 0.88281,0.578125 1.21093,0.824219 0.34375,0.261718 0.54297,0.300781 0.63672,0.300781 0.17578,0 0.4336,-0.05078 0.66406,-0.484375 l 0.94922,-1.792969 c -0.9375,-0.933593 -2.04687,-1.660156 -3.30078,-2.164062 -1.33594,-0.535157 -2.83203,-0.804688 -4.4414,-0.804688 -1.4375,0 -2.72266,0.234375 -3.82032,0.699219 -1.10156,0.460938 -2.03906,1.082031 -2.78515,1.84375 -0.75,0.765625 -1.32813,1.65625 -1.71875,2.640625 -0.39453,0.992187 -0.59375,2.023437 -0.59375,3.070313 0,1.335937 0.19531,2.464843 0.57812,3.351562 0.38281,0.890625 0.89453,1.644531 1.51172,2.238281 0.625,0.605469 1.34766,1.097657 2.14844,1.46875 0.82812,0.382813 1.67969,0.726563 2.53515,1.019531 0.8711,0.300782 1.72266,0.589844 2.5586,0.867188 0.86328,0.285156 1.64453,0.640625 2.32031,1.054688 0.69531,0.425781 1.26563,0.96875 1.69922,1.609374 0.44141,0.660157 0.66406,1.5 0.66406,2.5 0,0.878907 -0.14062,1.691407 -0.41406,2.414063 -0.27734,0.734375 -0.69141,1.371094 -1.22266,1.894531 -0.53125,0.523438 -1.18359,0.933594 -1.9375,1.21875 -0.75,0.28125 -1.61328,0.425782 -2.57031,0.425782 -1.13281,0 -2.125,-0.171876 -2.94922,-0.515626 -0.80469,-0.332031 -1.5,-0.703124 -2.07031,-1.101562 -0.56641,-0.398438 -1.04297,-0.765625 -1.42188,-1.09375 -0.52343,-0.460938 -0.91796,-0.460938 -1.17968,-0.296875 -0.1211,0.07422 -0.22266,0.175781 -0.30469,0.304687 l -1.11719,1.816407 c 1.05078,1.121093 2.33203,2.03125 3.8086,2.707031 1.55078,0.710938 3.28125,1.070312 5.14062,1.070312 1.53125,0 2.90625,-0.246093 4.09375,-0.734374 1.1875,-0.484376 2.19531,-1.160157 3.00391,-2.007813 0.8125,-0.847656 1.4375,-1.859375 1.86328,-3.003906 0.42578,-1.152344 0.64453,-2.410157 0.64453,-3.738281 0,-1.230469 -0.19531,-2.273438 -0.57422,-3.113282 -0.38281,-0.839844 -0.89062,-1.554687 -1.51172,-2.132812"
       fill="#033245"
       id="path63" />
    <path
       d="m 287.91016,59.621094 c -0.625,-0.582032 -1.35157,-1.074219 -2.15625,-1.460938 -0.82422,-0.398437 -1.67579,-0.757812 -2.53516,-1.066406 -0.87109,-0.320312 -1.72656,-0.625 -2.5625,-0.929688 -0.85938,-0.304687 -1.63672,-0.671874 -2.30859,-1.085937 -0.69922,-0.425781 -1.26563,-0.953125 -1.69532,-1.558594 -0.44531,-0.625 -0.66797,-1.417969 -0.66797,-2.359375 0,-0.707031 0.11719,-1.375 0.35547,-1.992187 0.23438,-0.621094 0.59375,-1.171875 1.0625,-1.640625 0.46875,-0.46875 1.0625,-0.839844 1.76563,-1.101563 0.6914,-0.257812 1.5039,-0.390625 2.41406,-0.390625 0.95313,0 1.78906,0.132813 2.48438,0.390625 0.67578,0.253907 1.26562,0.535157 1.75,0.839844 0.47656,0.300781 0.88281,0.578125 1.21093,0.824219 0.34375,0.261718 0.54297,0.300781 0.63282,0.300781 0.17578,0 0.4375,-0.05078 0.66796,-0.484375 l 0.94922,-1.792969 c -0.9375,-0.933593 -2.04687,-1.660156 -3.30078,-2.164062 -1.33984,-0.535157 -2.83203,-0.804688 -4.44531,-0.804688 -1.43359,0 -2.71875,0.234375 -3.82031,0.699219 -1.09766,0.460938 -2.03516,1.082031 -2.78516,1.84375 -0.74609,0.765625 -1.32422,1.65625 -1.71484,2.640625 -0.39453,0.992187 -0.59375,2.023437 -0.59375,3.070313 0,1.335937 0.1914,2.464843 0.57422,3.351562 0.38671,0.890625 0.89453,1.644531 1.51562,2.238281 0.625,0.605469 1.34766,1.097657 2.14844,1.46875 0.82422,0.382813 1.67578,0.726563 2.53515,1.019531 0.86719,0.300782 1.72266,0.589844 2.5586,0.867188 0.86328,0.285156 1.64453,0.640625 2.32031,1.054688 0.69531,0.425781 1.26563,0.96875 1.69922,1.609374 0.4375,0.660157 0.66406,1.5 0.66406,2.5 0,0.878907 -0.14062,1.691407 -0.41406,2.414063 -0.28125,0.734375 -0.69141,1.371094 -1.22266,1.894531 -0.53125,0.523438 -1.18359,0.933594 -1.9375,1.21875 -0.75,0.28125 -1.61328,0.425782 -2.57031,0.425782 -1.13281,0 -2.125,-0.171876 -2.94922,-0.515626 -0.80469,-0.332031 -1.5039,-0.703124 -2.07422,-1.101562 -0.5625,-0.398438 -1.03906,-0.765625 -1.41797,-1.09375 -0.52734,-0.460938 -0.91796,-0.460938 -1.17968,-0.296875 -0.125,0.07422 -0.22266,0.175781 -0.30469,0.304687 l -1.12109,1.816407 c 1.05468,1.121093 2.33593,2.03125 3.80859,2.707031 1.55469,0.710938 3.28516,1.070312 5.14062,1.070312 1.53125,0 2.91016,-0.246093 4.09766,-0.734374 1.1875,-0.484376 2.19531,-1.160157 3.00391,-2.007813 0.8125,-0.847656 1.4375,-1.859375 1.86328,-3.003906 C 289.78125,67.453125 290,66.195312 290,64.867188 c 0,-1.230469 -0.19531,-2.273438 -0.57422,-3.113282 -0.38281,-0.839844 -0.89062,-1.554687 -1.51562,-2.132812"
       fill="#033245"
       id="path65" />
  </g>
</svg>
