<?xml version="1.0" encoding="UTF-8"?>
<svg id="b" data-name="Layer 2" xmlns="http://www.w3.org/2000/svg" viewBox="0 0 200 60">
  <defs>
    <style>
      .d {
        fill: #fff;
      }

      .e {
        fill: #3e8e41;
      }
    </style>
  </defs>
  <g id="c" data-name="48x48">
    <g>
      <path class="e" d="M158.76,55.24c-1.45-.66-3.39-1.22-4.63-2.24-1.61-1.45-2.51-8.51-2.33-12.35,0-5.2,0-10.41,0-15.6-.01-2.34.08-11.36,3.32-9.87,1.4.66,3.21,1.16,4.39,2.15,1.61,1.45,2.55,8.51,2.36,12.37,0,5.2,0,10.41,0,15.6.03,2.01-.09,10.79-3.04,9.97l-.08-.03ZM159.28,27.48c-.04-2.11-.77-2.53-2.65-3.28-1.75-.89-2.16-.63-2.25,1.36-.05,2.96,0,5.92-.02,8.88,0,2.4,0,4.78,0,7.18.03,1.03-.03,2.34.5,3.23.61.82,1.94,1.13,2.89,1.61,1.12.56,1.44-.22,1.5-1.24.12-5.88.05-11.73.03-17.6v-.13Z"/>
      <path class="e" d="M171.26,59.9c-2.21-7.97-3.46-16.53-5.34-24.64-.17-.34-.12.78-.14.98,0,6.93,0,13.9,0,20.82,0,.61-.17,1.3-.91,1.12-1.05-.24-1.57-1.29-1.53-2.33,0-11.82,0-23.65,0-35.48,0-.52,0-1.3.48-1.47.42-.16,1.33.25,1.75.78.56.66.58,1.61.75,2.46,1.4,6.79,2.75,13.61,4.33,20.36.16.63.28.87.3.06.03-6.6-.02-13.23.02-19.82.03-.47.11-.87.34-1.24.44-.73,1.9-1.46,2.06-.16.13,12.12.01,24.27.04,36.39-.02.47-.08.89-.3,1.28-.35.69-1.4,1.19-1.81.93l-.05-.03Z"/>
      <path class="e" d="M181.87,55.6c-1.8.84-3.5,1.57-5.29,2.38-1.03.5-1.67.28-1.64-.97.06-2.13-.14-3.97.1-6.13.15-.65.62-1.14,1.2-1.44,1.5-.71,2.73-1.22,4.27-1.92.62-.3,1.29-.6,1.56-1.27.49-1.61.39-3.69.19-5.37-.2-1.32-1.3-.64-2.11-.29-.94.32-2.56,1.48-3.29.84-1.92-2-1.88-6.18-1.98-8.88-.06-4.48.14-12.33,2.9-14.26,1.43-.76,3.14-1.45,4.65-2.13.97-.44,1.44.07,1.4,1.07-.08,2.16.18,4.09-.13,6.24-.52,1.56-2.48,1.77-3.73,2.49-1.06.48-2.05.82-2.29,1.89-.21,1.05-.85,5.43,1.26,4.49,1.15-.35,2.42-1.38,3.66-1.2,2.16.61,2.5,8.12,2.36,11.17.01,2.49-.03,4.77-.46,7.26-.5,3.07-1.34,4.89-1.97,5.58-.17.18-.33.27-.59.41l-.07.04Z"/>
      <path class="e" d="M190.36,21.85c-.24.38-.29.89-.29,1.36,0,3.5,0,7.02,0,10.53-.03,5.75.06,11.5-.04,17.25-.03,1.07-1.36,2.15-2.33,1.81-.31-.19-.35-.88-.34-1.32,0-8.98,0-17.96,0-26.94,0-.46-.05-1.21-.53-1.27-1.11-.04-2.38,1.39-2.48-.69-.01-1.99-.01-3.53,0-5.53-.01-.97.54-1.83,1.44-2.22,2.09-.95,3.65-1.64,5.73-2.56.51-.23,1.24-.43,1.45.27.25,1.65.04,3.28.1,4.84-.02.89.11,2.03-.4,2.73-.52.84-1.73.86-2.27,1.67l-.05.08Z"/>
    </g>
    <path class="e" d="M200.03,17.04c.56-1.36.19-3.07.29-4.43-.09-1.29.18-3.13-.05-4.44-2.27-.77-18.11-5.01-25.77-7.18-1.34-.32-2.17-.63-2.98-.85-.73-.19-1.49-.19-2.22,0-5.06,1.38-23.09,6.39-28.23,7.8-.49.16-.71.07-.7.64.02.51.04,1.35.04,1.96,0,11.77,0,23.54,0,35.31,0,.85.32,1.62,1.1,2.02,1.18.66,1.51-.29,1.47-1.32.17-4-.43-7.71.39-11.78.37-1.21.82-2.97,1.19-.69.95,4.97,1.9,9.94,2.85,14.9.15.81.53,1.58,1.24,2.01,1.34.79,2.38,1.05,1.96-.71-1.41-7.69-3.18-15.33-4.4-23.05-.01-.67.11-1.36.31-2,1.25-3.98,2.12-6.6,3.35-10.56.27-.95.03-1.68-.72-2.07-.95-.54-1.9-.72-2.36.32-1.3,3.66-2.05,6.43-3.28,10.12-.41,1.31-.54.82-.53-.23,0-4.17,0-6.98,0-11.18-.02-.62-.15-1.29-.54-1.74-.44-.55-.99-.68-.97-.79.01-.1.43-.16.93-.31,4.65-1.26,22.09-6.14,26.87-7.42.72-.19,1.48-.19,2.2,0,7.57,2.04,23.57,6.54,27.41,7.57.13.03.23.06.34.11.04.02.05.05.01.09-.7.48-2.73,1.21-3.78,1.75-.96.42-1.46,1.39-1.42,2.42.07,2.02-.15,3.81.1,5.82.2.91,1.35.23,1.58,1.07.26,6.42.07,12.95.08,19.4-.01,1.22-1.21,1.61-1.59,2.68-.12.35-.16.76-.16,1.14,0,1.79,0,3.2,0,4.99,0,.57.1,1.37.82,1.31,1.48-.41,3.18-1.21,4.56-1.97.97-.67.94-1.94.91-3.04-.11-1.62.25-3.48-.2-5.11-.25-.46-.9-.24-1.26-.48-.32-.22-.33-.85-.34-1.28,0-6.04,0-12.09,0-18.12-.1-1.21.79-1.78,1.46-2.58l.05-.09Z"/>
    <path class="e" d="M167.14,9.62c.33,2.79,6.84,2.62,6.38-.41-.86-2.32-6-2.21-6.38.33v.08Z"/>
    <path class="e" d="M151.56,9.62c.33,2.79,6.84,2.62,6.38-.41-.86-2.32-6-2.21-6.38.33v.08Z"/>
    <path class="e" d="M182.71,9.62c.38,2.54,5.52,2.65,6.38.33.46-3.03-6.05-3.2-6.38-.41v.08Z"/>
  </g>
  <rect class="e" y="8.39" width="135" height="38.79" rx="2" ry="2"/>
  <g>
    <path class="d" d="M15.31,21.02c1.61,0,3.14.58,3.14.58l-.77,1.73s-1.18-.74-2.64-.74c-.84,0-1.99.53-1.99,1.54,0,2.4,4.46,2.3,4.46,5.83,0,2.35-2.14,3.55-4.15,3.55s-3.29-1.03-3.29-1.03v-2.02s1.61,1.39,3.22,1.39c.91,0,2.21-.46,2.21-1.66,0-2.26-4.44-2.14-4.44-5.74,0-2.14,2.16-3.43,4.25-3.43Z"/>
    <path class="d" d="M22.2,31.39l-.1,1.8h-2.26l1.87-9.6.12-2.21,2.38-.26-2.02,10.27ZM23.47,16.55c.65,0,1.22.58,1.22,1.25s-.58,1.3-1.22,1.3c-.7,0-1.25-.62-1.25-1.3s.55-1.25,1.25-1.25Z"/>
    <path class="d" d="M36.07,21.38l-1.51,7.73c-.1.5-.22,1.42-.22,2.33,0,1.51.1,2.83.1,3.36,0,2.62-2.57,4.22-5.33,4.22-3.86,0-5.06-2.54-5.06-2.54l1.56-1.01s1.15,2.02,3.7,2.02c1.7,0,3.14-1.1,3.14-2.9,0-.98-.24-2.23-.12-3.24-.22.41-1.61,2.16-3.55,2.16-1.46,0-2.59-1.37-2.59-3.89,0-4.3,2.02-8.54,6.43-8.54,1.94,0,3.46.31,3.46.31ZM28.3,29.27c0,1.68.65,2.35,1.39,2.35,1.01,0,2.83-2.16,2.83-2.26l1.3-6.7s-.7-.14-1.42-.14c-2.21,0-4.1,3.55-4.1,6.75Z"/>
    <path class="d" d="M44.74,33.19l1.46-7.8c.14-.72.43-2.38-.79-2.38-1.66,0-4.01,2.23-4.01,2.23l-1.18,6.14-.14,1.8h-2.21l1.87-9.6-.17-1.97,2.38-.5-.36,2.33s2.42-2.4,4.61-2.4,2.52,1.66,2.21,3.55l-1.32,6.84-.12,1.75h-2.23Z"/>
    <path class="d" d="M56.81,26.37l-.48,1.78h-5.54v-1.78h6.02Z"/>
    <path class="d" d="M67.56,29.49c-.34,1.73-.34,2.64.62,3.7l-2.14.31c-.55-.43-.77-1.13-.77-1.8l.07-.6s-2.38,2.42-4.56,2.42-2.52-1.66-2.21-3.55l1.32-6.84.12-1.75h2.23l-1.46,7.8c-.14.72-.43,2.38.79,2.38,1.66,0,4.01-2.23,4.01-2.23l1.18-6.14.14-1.8h2.21l-1.56,8.11Z"/>
    <path class="d" d="M75,23.42s1.99-2.35,4.06-2.35c1.39,0,2.64,1.25,2.64,3.82,0,4.27-2.02,8.62-6.26,8.62-.84,0-2.16-.36-2.18-.43l-.79,4.08-.12,1.8h-2.23l3-15.36-.17-1.97,2.38-.5-.31,2.3ZM73.56,31.48s.82.38,1.87.38c2.54,0,4.15-3.34,4.15-6.65,0-1.61-.7-2.23-1.42-2.23-1.2,0-3.41,2.33-3.41,2.33l-1.2,6.17Z"/>
    <path class="d" d="M96.17,31.19s-1.7,2.3-3.72,2.3c-1.46,0-2.81-1.3-2.81-3.82,0-4.3,2.52-8.62,6.26-8.62,1.7,0,3.05.26,4.01.31l-1.56,8.11c-.34,1.73-.29,2.64.67,3.7l-2.14.31c-.55-.43-.77-1.13-.77-1.8l.05-.5ZM97.63,22.72s-1.2-.19-1.56-.19c-2.06,0-4.32,3.14-4.32,6.79,0,1.01.36,2.38,1.39,2.38,1.13,0,3.19-2.38,3.22-2.38l1.27-6.6Z"/>
    <path class="d" d="M105.69,23.42s1.99-2.35,4.06-2.35c1.39,0,2.64,1.25,2.64,3.82,0,4.27-2.02,8.62-6.26,8.62-.84,0-2.16-.36-2.18-.43l-.79,4.08-.12,1.8h-2.23l3-15.36-.17-1.97,2.38-.5-.31,2.3ZM104.25,31.48s.82.38,1.87.38c2.54,0,4.15-3.34,4.15-6.65,0-1.61-.7-2.23-1.42-2.23-1.2,0-3.41,2.33-3.41,2.33l-1.2,6.17Z"/>
    <path class="d" d="M118.22,23.42s1.99-2.35,4.06-2.35c1.39,0,2.64,1.25,2.64,3.82,0,4.27-2.02,8.62-6.26,8.62-.84,0-2.16-.36-2.18-.43l-.79,4.08-.12,1.8h-2.23l3-15.36-.17-1.97,2.38-.5-.31,2.3ZM116.78,31.48s.82.38,1.87.38c2.54,0,4.15-3.34,4.15-6.65,0-1.61-.7-2.23-1.42-2.23-1.2,0-3.41,2.33-3.41,2.33l-1.2,6.17Z"/>
  </g>
</svg>