<?xml version="1.0" encoding="UTF-8" standalone="no"?>
<!-- Created with Inkscape (http://www.inkscape.org/) -->

<svg
   width="256"
   height="256"
   viewBox="0 0 67.733331 67.733333"
   version="1.1"
   id="svg8"
   sodipodi:docname="boardgames.png.svg"
   inkscape:version="1.1.2 (0a00cf5339, 2022-02-04)"
   xmlns:inkscape="http://www.inkscape.org/namespaces/inkscape"
   xmlns:sodipodi="http://sodipodi.sourceforge.net/DTD/sodipodi-0.dtd"
   xmlns="http://www.w3.org/2000/svg"
   xmlns:svg="http://www.w3.org/2000/svg"
   xmlns:rdf="http://www.w3.org/1999/02/22-rdf-syntax-ns#"
   xmlns:cc="http://creativecommons.org/ns#"
   xmlns:dc="http://purl.org/dc/elements/1.1/">
  <defs
     id="defs2" />
  <sodipodi:namedview
     id="base"
     pagecolor="#ffffff"
     bordercolor="#666666"
     borderopacity="1.0"
     inkscape:pageopacity="0.0"
     inkscape:pageshadow="2"
     inkscape:zoom="0.7"
     inkscape:cx="205.71429"
     inkscape:cy="413.57143"
     inkscape:document-units="px"
     inkscape:current-layer="layer1"
     showgrid="false"
     inkscape:window-width="2560"
     inkscape:window-height="1390"
     inkscape:window-x="0"
     inkscape:window-y="0"
     inkscape:window-maximized="1"
     units="px"
     inkscape:pagecheckerboard="0" />
  <metadata
     id="metadata5">
    <rdf:RDF>
      <cc:Work
         rdf:about="">
        <dc:format>image/svg+xml</dc:format>
        <dc:type
           rdf:resource="http://purl.org/dc/dcmitype/StillImage" />
      </cc:Work>
    </rdf:RDF>
  </metadata>
  <g
     inkscape:label="Layer 1"
     inkscape:groupmode="layer"
     id="layer1"
     transform="translate(0,126.33331)">
    <g
       id="g148"
       transform="matrix(0.08555831,0,0,-0.08555831,45.843236,-78.283188)"
       style="stroke-width:4.12324">
      <path
         d="m 0,0 h 15.903 c -2.374,3.078 -3.79,6.934 -3.79,11.122 0,9.497 7.262,17.295 16.534,18.152 L 64.21,262.07 27.791,331.55 v 56.454 h 26.645 v -34.206 h 26.956 v 34.206 h 25.969 v -34.206 h 26.956 v 34.206 h 25.97 v -34.206 h 26.955 v 34.206 h 26.645 V 331.55 L 174.878,262.07 212.969,29.279 c 9.302,-0.829 16.596,-8.639 16.596,-18.157 0,-4.188 -1.416,-8.044 -3.79,-11.122 h 15.903 c 7.827,0 14.172,-6.345 14.172,-14.172 V -56.454 H -14.171 v 42.282 C -14.171,-6.345 -7.827,0 0,0"
         style="fill:#ffffff;fill-opacity:1;fill-rule:nonzero;stroke:none;stroke-width:4.12324"
         id="path150" />
    </g>
    <g
       id="g152"
       transform="matrix(0.08555831,0,0,-0.08555831,31.197856,-93.902978)"
       style="stroke-width:4.12324">
      <path
         d="m 0,0 c 0,0 118.31,-9.363 117.464,51.481 -0.844,60.846 -159.717,60.846 -159.717,60.846 0,86.89 -52.557,93.337 -69.802,93.114 -3.606,-0.047 -7.212,-0.047 -10.818,0 -17.246,0.223 -69.802,-6.224 -69.802,-93.114 0,0 -158.873,0 -159.718,-60.846 C -353.238,-9.363 -234.929,0 -234.929,0 c 0,0 -194.323,-237.211 -107.272,-238.376 89.154,-1.194 107.746,-0.924 119.154,2.447 8.104,2.395 87.555,115.017 105.583,115.017 18.028,0 97.478,-112.622 105.582,-115.017 11.409,-3.371 30,-3.641 119.155,-2.447 C 194.324,-237.211 0,0 0,0"
         style="fill:#ffffff;fill-opacity:1;fill-rule:nonzero;stroke:none;stroke-width:4.12324"
         id="path154" />
    </g>
  </g>
</svg>
