<?xml version="1.0" encoding="UTF-8" standalone="no"?>
<!-- Created with Inkscape (http://www.inkscape.org/) -->

<svg
   width="256"
   height="256"
   viewBox="0 0 67.733331 67.733333"
   version="1.1"
   id="svg8"
   sodipodi:docname="boffer.svg"
   inkscape:version="1.1.2 (0a00cf5339, 2022-02-04)"
   xmlns:inkscape="http://www.inkscape.org/namespaces/inkscape"
   xmlns:sodipodi="http://sodipodi.sourceforge.net/DTD/sodipodi-0.dtd"
   xmlns="http://www.w3.org/2000/svg"
   xmlns:svg="http://www.w3.org/2000/svg"
   xmlns:rdf="http://www.w3.org/1999/02/22-rdf-syntax-ns#"
   xmlns:cc="http://creativecommons.org/ns#"
   xmlns:dc="http://purl.org/dc/elements/1.1/">
  <defs
     id="defs2" />
  <sodipodi:namedview
     id="base"
     pagecolor="#ffffff"
     bordercolor="#666666"
     borderopacity="1.0"
     inkscape:pageopacity="0.0"
     inkscape:pageshadow="2"
     inkscape:zoom="0.7"
     inkscape:cx="205.71429"
     inkscape:cy="413.57143"
     inkscape:document-units="px"
     inkscape:current-layer="layer1"
     showgrid="false"
     inkscape:window-width="2560"
     inkscape:window-height="1390"
     inkscape:window-x="0"
     inkscape:window-y="0"
     inkscape:window-maximized="1"
     units="px"
     inkscape:pagecheckerboard="0" />
  <metadata
     id="metadata5">
    <rdf:RDF>
      <cc:Work
         rdf:about="">
        <dc:format>image/svg+xml</dc:format>
        <dc:type
           rdf:resource="http://purl.org/dc/dcmitype/StillImage" />
      </cc:Work>
    </rdf:RDF>
  </metadata>
  <g
     inkscape:label="Layer 1"
     inkscape:groupmode="layer"
     id="layer1"
     transform="translate(0,126.33331)">
    <g
       id="g2150"
       transform="matrix(0.09542503,0,0,-0.09542503,55.742174,-76.035158)"
       style="stroke-width:3.69691">
      <path
         d="m 0,0 77.092,77.091 -25.07,25.07 -52.647,-52.647 -123.001,122.999 210.969,210.969 -0.011,0.011 19.16,71.786 19.168,71.817 -71.815,-19.169 -71.787,-19.16 -0.01,0.01 -210.969,-210.968 -206.675,206.672 -0.009,-0.007 -71.788,19.16 -71.815,19.166 19.167,-71.817 19.161,-71.786 -0.011,-0.01 206.675,-206.674 -127.938,-127.938 -52.648,52.648 -25.071,-25.069 77.092,-77.092 -109.682,-109.683 c -15.577,-15.577 -15.577,-40.833 0,-56.407 15.577,-15.577 40.832,-15.577 56.407,0 l 109.683,109.68 77.092,-77.09 25.07,25.071 -52.648,52.647 127.938,127.938 123,-122.999 -52.647,-52.648 25.069,-25.071 77.092,77.091 109.682,-109.684 c 15.577,-15.576 40.831,-15.576 56.408,0 15.577,15.577 15.577,40.833 0,56.41 z"
         style="fill:#ffffff;fill-opacity:1;fill-rule:nonzero;stroke:none;stroke-width:3.69691"
         id="path2152" />
    </g>
  </g>
</svg>
