<?xml version="1.0" encoding="UTF-8" standalone="no"?>
<!-- Created with Inkscape (http://www.inkscape.org/) -->

<svg
   width="256"
   height="256"
   viewBox="0 0 67.733331 67.733333"
   version="1.1"
   id="svg8"
   sodipodi:docname="cards.svg"
   inkscape:version="1.1.2 (0a00cf5339, 2022-02-04)"
   xmlns:inkscape="http://www.inkscape.org/namespaces/inkscape"
   xmlns:sodipodi="http://sodipodi.sourceforge.net/DTD/sodipodi-0.dtd"
   xmlns="http://www.w3.org/2000/svg"
   xmlns:svg="http://www.w3.org/2000/svg"
   xmlns:rdf="http://www.w3.org/1999/02/22-rdf-syntax-ns#"
   xmlns:cc="http://creativecommons.org/ns#"
   xmlns:dc="http://purl.org/dc/elements/1.1/">
  <defs
     id="defs2" />
  <sodipodi:namedview
     id="base"
     pagecolor="#ffffff"
     bordercolor="#666666"
     borderopacity="1.0"
     inkscape:pageopacity="0.0"
     inkscape:pageshadow="2"
     inkscape:zoom="0.35"
     inkscape:cx="537.14286"
     inkscape:cy="558.57143"
     inkscape:document-units="px"
     inkscape:current-layer="layer1"
     showgrid="false"
     inkscape:window-width="2560"
     inkscape:window-height="1390"
     inkscape:window-x="0"
     inkscape:window-y="0"
     inkscape:window-maximized="1"
     units="px"
     inkscape:pagecheckerboard="0" />
  <metadata
     id="metadata5">
    <rdf:RDF>
      <cc:Work
         rdf:about="">
        <dc:format>image/svg+xml</dc:format>
        <dc:type
           rdf:resource="http://purl.org/dc/dcmitype/StillImage" />
      </cc:Work>
    </rdf:RDF>
  </metadata>
  <g
     inkscape:label="Layer 1"
     inkscape:groupmode="layer"
     id="layer1"
     transform="translate(0,126.33331)">
    <g
       id="g1071"
       transform="translate(18.077999,-135.70245)">
      <path
         d="M 14.942854,71.587628 -8.0635575,31.739311 c -1.2088717,-2.093966 -0.4914272,-4.771486 1.6024567,-5.980443 L 7.1481257,17.901588 6.0982774,16.851822 c -1.4042129,-1.404291 -3.6810462,-1.404291 -5.0853446,0 L -17.024776,34.889536 c -1.404297,1.404291 -1.404297,3.681042 0,5.085347 l 32.489649,32.489639 c 0.357782,0.357786 0.772301,0.623883 1.214511,0.799314 -0.70121,-0.371967 -1.310303,-0.938086 -1.73653,-1.676208"
         style="fill:#ffffff;fill-opacity:1;fill-rule:nonzero;stroke:none;stroke-width:0.352776"
         id="path164" />
      <path
         d="M -7.3354659,31.356831 15.638217,71.148326 c 0.252936,0.438186 0.584483,0.802552 0.966192,1.086416 -0.581066,-0.54073 -1.022846,-1.245274 -1.243563,-2.068505 L 3.4519183,25.721175 C 2.8261629,23.385719 4.2120873,20.985064 6.5476265,20.359311 L 8.9595602,19.713053 9.8761036,19.467375 21.726753,16.292036 20.984356,15.006345 c -0.992938,-1.719877 -3.192095,-2.309226 -4.912049,-1.31621 l -7.5908431,4.382687 -0.7368416,0.425289 -13.7638908,7.946665 c -1.7199527,0.992929 -2.3092223,3.192178 -1.3161974,4.912055"
         style="fill:#ffffff;fill-opacity:1;fill-rule:nonzero;stroke:none;stroke-width:0.352776"
         id="path168" />
      <path
         d="m 16.13262,26.886063 v -1.162134 -2.835334 c 0,-2.417915 1.960067,-4.378079 4.377982,-4.378079 h 2.496955 0.948931 12.268587 l -0.384184,-1.433942 c -0.513987,-1.91837 -2.485764,-3.056753 -4.404047,-2.54276 l -8.466543,2.268635 -0.821779,0.220202 -11.607115,3.110155 -0.9165435,0.245576 -2.8279925,0.7577 C 4.878502,21.650147 3.7401267,23.621847 4.2541132,25.540217 L 16.146206,69.921863 c 0.13099,0.488777 0.356928,0.926369 0.65216,1.299458 -0.421444,-0.672763 -0.665746,-1.467533 -0.665746,-2.319907 z"
         style="fill:#ffffff;fill-opacity:1;fill-rule:nonzero;stroke:none;stroke-width:0.352776"
         id="path172" />
      <path
         d="M 46.059395,19.325428 H 37.294202 36.443541 24.426945 23.478102 20.550216 c -1.98596,0 -3.595852,1.609973 -3.595852,3.595932 v 3.624394 1.162048 41.160846 c 0,1.98596 1.609892,3.595932 3.595852,3.595932 h 1.152473 0.47733 1.518631 22.360745 c 1.985961,0 3.595937,-1.609972 3.595937,-3.595932 V 22.92136 c 0,-1.985959 -1.609976,-3.595932 -3.595937,-3.595932"
         style="fill:#ffffff;fill-opacity:1;fill-rule:nonzero;stroke:none;stroke-width:0.352776"
         id="path176" />
    </g>
  </g>
</svg>
