<?xml version="1.0" encoding="UTF-8" standalone="no"?>
<!-- Created with Inkscape (http://www.inkscape.org/) -->

<svg
   width="256"
   height="256"
   viewBox="0 0 67.733331 67.733333"
   version="1.1"
   id="svg8"
   sodipodi:docname="experience.svg"
   inkscape:version="1.1.2 (0a00cf5339, 2022-02-04)"
   xmlns:inkscape="http://www.inkscape.org/namespaces/inkscape"
   xmlns:sodipodi="http://sodipodi.sourceforge.net/DTD/sodipodi-0.dtd"
   xmlns="http://www.w3.org/2000/svg"
   xmlns:svg="http://www.w3.org/2000/svg"
   xmlns:rdf="http://www.w3.org/1999/02/22-rdf-syntax-ns#"
   xmlns:cc="http://creativecommons.org/ns#"
   xmlns:dc="http://purl.org/dc/elements/1.1/">
  <defs
     id="defs2" />
  <sodipodi:namedview
     id="base"
     pagecolor="#ffffff"
     bordercolor="#666666"
     borderopacity="1.0"
     inkscape:pageopacity="0.0"
     inkscape:pageshadow="2"
     inkscape:zoom="0.7"
     inkscape:cx="205.71429"
     inkscape:cy="413.57143"
     inkscape:document-units="px"
     inkscape:current-layer="layer1"
     showgrid="false"
     inkscape:window-width="2560"
     inkscape:window-height="1390"
     inkscape:window-x="0"
     inkscape:window-y="0"
     inkscape:window-maximized="1"
     units="px"
     inkscape:pagecheckerboard="0" />
  <metadata
     id="metadata5">
    <rdf:RDF>
      <cc:Work
         rdf:about="">
        <dc:format>image/svg+xml</dc:format>
        <dc:type
           rdf:resource="http://purl.org/dc/dcmitype/StillImage" />
      </cc:Work>
    </rdf:RDF>
  </metadata>
  <g
     inkscape:label="Layer 1"
     inkscape:groupmode="layer"
     id="layer1"
     transform="translate(0,126.33331)">
    <g
       id="g170"
       transform="matrix(0.08286806,0,0,-0.08286806,41.165631,-65.111752)"
       style="stroke-width:4.2571">
      <path
         d="m 0,0 c 0,-15.176 -1.26,-27.698 -3.781,-37.564 -2.521,-9.889 -7.267,-17.942 -14.239,-24.136 -6.972,-6.195 -16.063,-10.552 -27.218,-13.097 -11.181,-2.499 -25.421,-3.783 -42.743,-3.783 -17.323,0 -31.723,1.284 -43.173,3.783 -11.45,2.545 -20.514,6.902 -27.218,13.097 -6.703,6.194 -11.315,14.247 -13.836,24.136 -2.521,9.866 -3.754,22.388 -3.754,37.564 0,15.154 1.233,27.896 3.754,38.25 2.521,10.332 7.133,18.362 13.836,24.114 6.704,5.752 15.768,9.888 27.218,12.41 11.45,2.522 25.85,3.806 43.173,3.806 17.322,0 31.562,-1.284 42.743,-3.806 11.155,-2.522 20.246,-6.658 27.218,-12.41 C -11.048,56.612 -6.302,48.582 -3.781,38.25 -1.26,27.896 0,15.154 0,0"
         style="fill:#ffffff;fill-opacity:1;fill-rule:nonzero;stroke:none;stroke-width:4.2571"
         id="path172-3" />
    </g>
    <g
       id="g174"
       transform="matrix(0.08286806,0,0,-0.08286806,39.801788,-77.918722)"
       style="stroke-width:4.2571">
      <path
         d="m 0,0 c 0,-3.115 -1.145,-5.839 -3.372,-8.17 -2.258,-2.351 -6.28,-4.291 -12.096,-5.839 -5.816,-1.567 -13.209,-2.724 -22.242,-3.507 -9.034,-0.784 -20.294,-1.157 -33.813,-1.157 -13.55,0 -24.81,0.373 -33.844,1.157 -9.033,0.783 -16.427,1.94 -22.243,3.507 -5.816,1.548 -9.837,3.488 -12.096,5.839 -2.258,2.331 -3.372,5.055 -3.372,8.17 l -16.426,556.796 c -0.65,4.663 0.309,8.749 2.907,12.256 2.568,3.507 7.24,6.417 14.014,8.768 6.745,2.331 15.778,3.992 27.069,4.962 11.261,0.969 25.924,1.455 43.991,1.455 17.386,0 31.74,-0.597 43.001,-1.754 11.26,-1.175 20.293,-2.928 27.068,-5.26 6.775,-2.332 11.446,-5.149 14.045,-8.451 2.568,-3.32 3.867,-7.313 3.867,-11.976 z"
         style="fill:#ffffff;fill-opacity:1;fill-rule:nonzero;stroke:none;stroke-width:4.2571"
         id="path176-6" />
    </g>
  </g>
</svg>
