<?xml version="1.0" encoding="UTF-8" standalone="no"?>
<!-- Created with Inkscape (http://www.inkscape.org/) -->

<svg
   width="256"
   height="256"
   viewBox="0 0 67.733331 67.733333"
   version="1.1"
   id="svg8"
   sodipodi:docname="figurepainting.svg"
   inkscape:version="1.1.2 (0a00cf5339, 2022-02-04)"
   xmlns:inkscape="http://www.inkscape.org/namespaces/inkscape"
   xmlns:sodipodi="http://sodipodi.sourceforge.net/DTD/sodipodi-0.dtd"
   xmlns="http://www.w3.org/2000/svg"
   xmlns:svg="http://www.w3.org/2000/svg"
   xmlns:rdf="http://www.w3.org/1999/02/22-rdf-syntax-ns#"
   xmlns:cc="http://creativecommons.org/ns#"
   xmlns:dc="http://purl.org/dc/elements/1.1/">
  <defs
     id="defs2" />
  <sodipodi:namedview
     id="base"
     pagecolor="#ffffff"
     bordercolor="#666666"
     borderopacity="1.0"
     inkscape:pageopacity="0.0"
     inkscape:pageshadow="2"
     inkscape:zoom="0.7"
     inkscape:cx="205.71429"
     inkscape:cy="413.57143"
     inkscape:document-units="px"
     inkscape:current-layer="layer1"
     showgrid="false"
     inkscape:window-width="2560"
     inkscape:window-height="1390"
     inkscape:window-x="0"
     inkscape:window-y="0"
     inkscape:window-maximized="1"
     units="px"
     inkscape:pagecheckerboard="0" />
  <metadata
     id="metadata5">
    <rdf:RDF>
      <cc:Work
         rdf:about="">
        <dc:format>image/svg+xml</dc:format>
        <dc:type
           rdf:resource="http://purl.org/dc/dcmitype/StillImage" />
      </cc:Work>
    </rdf:RDF>
  </metadata>
  <g
     inkscape:label="Layer 1"
     inkscape:groupmode="layer"
     id="layer1"
     transform="translate(0,126.33331)">
    <g
       id="g1914"
       transform="matrix(0.0776834,0,0,-0.0776834,26.819893,-126.33331)"
       style="stroke-width:4.54122">
      <path
         d="m 0,0 c 14.094,-8.979 27.981,-17.382 41.328,-26.549 38.215,-26.088 72.505,-56.476 102.506,-91.985 33.895,-40.146 59.886,-84.349 78.056,-133.205 27.065,-72.652 34.272,-146.576 25.1,-221.751 -4.382,-35.892 -12.583,-70.709 -25.894,-104.023 -14.689,-36.862 -32.622,-71.711 -63.303,-97.967 -12.097,-10.374 -26.584,-15.92 -41.587,-20.434 -6.103,-1.831 -7.778,-5.241 -7.894,-11.089 -0.94,-37.167 -6.509,-123.789 -6.509,-160.822 0,-13.978 -171.845,11.939 -171.147,17.085 9.713,30.31 20.385,74.234 31.208,104.071 9.986,27.628 21.24,54.76 32.464,83.37 -16.375,25.7 -32.184,54.069 -42.747,84.986 -11.006,32.269 -14.645,64.793 -10.703,98.07 5.406,45.721 16.819,89.675 33.398,132.114 13.882,35.484 28.418,70.727 41.983,106.321 8.749,22.92 10.714,47.389 11.273,72.033 1.146,50.324 -8.64,99.333 -23.752,147.71 C 1.875,-15.913 0.492,-9.604 -1.025,-3.343 -1.207,-2.772 -0.636,-2.021 0,0"
         style="fill:#ffffff;fill-opacity:1;fill-rule:evenodd;stroke:none;stroke-width:4.54122"
         id="path1916" />
    </g>
  </g>
</svg>
