<?xml version="1.0" encoding="UTF-8" standalone="no"?>
<!-- Created with Inkscape (http://www.inkscape.org/) -->

<svg
   width="256"
   height="256"
   viewBox="0 0 67.733331 67.733333"
   version="1.1"
   id="svg8"
   sodipodi:docname="figures.svg"
   inkscape:version="1.1.2 (0a00cf5339, 2022-02-04)"
   xmlns:inkscape="http://www.inkscape.org/namespaces/inkscape"
   xmlns:sodipodi="http://sodipodi.sourceforge.net/DTD/sodipodi-0.dtd"
   xmlns="http://www.w3.org/2000/svg"
   xmlns:svg="http://www.w3.org/2000/svg"
   xmlns:rdf="http://www.w3.org/1999/02/22-rdf-syntax-ns#"
   xmlns:cc="http://creativecommons.org/ns#"
   xmlns:dc="http://purl.org/dc/elements/1.1/">
  <defs
     id="defs2" />
  <sodipodi:namedview
     id="base"
     pagecolor="#ffffff"
     bordercolor="#666666"
     borderopacity="1.0"
     inkscape:pageopacity="0.0"
     inkscape:pageshadow="2"
     inkscape:zoom="0.7"
     inkscape:cx="205.71429"
     inkscape:cy="413.57143"
     inkscape:document-units="px"
     inkscape:current-layer="layer1"
     showgrid="false"
     inkscape:window-width="2560"
     inkscape:window-height="1390"
     inkscape:window-x="0"
     inkscape:window-y="0"
     inkscape:window-maximized="1"
     units="px"
     inkscape:pagecheckerboard="0" />
  <metadata
     id="metadata5">
    <rdf:RDF>
      <cc:Work
         rdf:about="">
        <dc:format>image/svg+xml</dc:format>
        <dc:type
           rdf:resource="http://purl.org/dc/dcmitype/StillImage" />
      </cc:Work>
    </rdf:RDF>
  </metadata>
  <g
     inkscape:label="Layer 1"
     inkscape:groupmode="layer"
     id="layer1"
     transform="translate(0,126.33331)">
    <g
       id="g1678"
       transform="matrix(0.07935513,0,0,-0.07935513,56.073836,-100.43016)"
       style="stroke-width:4.44556">
      <path
         d="M 0,0 C 6.108,10.946 18.005,20.961 14.068,32.163 11.86,38.447 -7.5,51.339 -12.421,59.731 c -3.584,6.114 -9.974,12.204 -13.493,18.559 1.101,2.901 1.726,6.263 1.69,9.856 -0.051,5.241 -1.483,9.971 -3.758,13.451 -0.313,0.477 -0.495,1.001 -0.574,1.554 -2.505,29.242 -4.125,46.795 -4.125,46.795 l -0.956,8.563 c -1.905,8.127 -4.468,12.997 -7.608,18.16 -3.269,5.377 -7.382,9.504 -11.117,12.481 -5.221,4.162 -9.631,6.125 -9.631,6.125 l 0.102,-0.021 c -10.465,4.757 -18.531,14.23 -21.058,25.767 -5.281,24.125 15.788,61.424 39.674,61.178 16.912,-0.173 29.242,-27.617 33.231,-44.053 0.705,-2.907 1.04,-5.772 1.057,-8.57 0.008,-1.329 0.557,-2.605 1.562,-3.474 6.433,-5.566 14.149,-0.877 13.902,5.39 -0.004,0.079 -0.007,0.157 -0.011,0.236 -1.414,31.193 -26.844,70.289 -58.59,65.319 -24.13,-3.777 -45.548,-39.704 -47.128,-64.077 -1.56,-24.075 12.794,-44.593 33.24,-52.743 l -0.247,0.061 c 0,0 14.79,-9.461 16.81,-25.591 l 0.936,-6.951 c 2.009,-10.428 4.294,-29.053 6.696,-53.439 0.009,-0.523 -0.081,-1.021 -0.292,-1.5 -0.659,-1.5 -1.394,-3.013 -2.256,-4.489 -2.341,-4.001 -1.581,-8.165 0.605,-11.616 -4.386,-10.511 -13.641,-28.177 -15.354,-33.78 -27.362,21.412 -40.78,74.577 -70.193,92.412 -21.712,13.164 -40.661,5.734 -42.017,36.353 0,0.019 0.012,0.037 0.029,0.042 18.41,6.063 26.91,11.192 39.428,24.029 1.729,1.773 1.477,4.713 -0.577,6.096 -15.371,10.35 -39.055,15.698 -47.424,29.768 -6.314,10.616 -11.091,30.938 -10.021,47.461 0.564,8.703 39.359,43.881 31.332,47.017 -10.083,3.94 -68.274,-29.579 -78.196,-37.399 -7.274,-5.731 -13.431,-12.84 -16.898,-18.713 -16.385,-27.755 -2.316,-39.17 -32.939,-53.233 -19.769,-9.079 -46.385,-16.225 -17.913,-36.302 13.704,-9.664 24.508,-0.266 24.69,-19.3 0.112,-11.795 -10.246,-15.882 -17.15,-22.466 -24.344,-23.219 -32.939,-37.366 -48.01,-68.013 -7.236,-14.715 -27.323,-95.212 -41.034,-82.167 -6.563,6.244 -11.572,11.248 -15.993,16.345 -1.222,3.235 -3.326,6.511 -6.248,9.396 -2.5,2.467 -5.441,4.322 -8.227,5.478 l -2.507,3.687 13.786,8.237 c 2.93,1.751 3.886,5.545 2.135,8.475 -0.662,1.108 -2.098,1.47 -3.658,0.538 l -14.902,-8.904 -140.072,215.187 v 0 l -12.848,13.785 4.484,-18.153 L -440.022,20.766 -459.02,9.413 c -0.657,-0.392 -1.019,-1.827 -0.356,-2.936 1.751,-2.93 5.544,-3.886 8.474,-2.136 l 17.731,10.595 1.661,-2.518 c -0.902,-2.205 -0.215,-6.707 5.01,-16.662 0.946,-1.804 2.18,-3.262 3.587,-4.414 0.028,-0.023 0.043,-0.053 0.043,-0.089 0.085,-33.862 -1.018,-137.874 38.885,-139.685 36.497,-1.657 54.97,117.502 75.722,114.786 0,-87.701 -19.579,-168.955 -35.244,-255.249 -7.711,-42.479 -18.67,-84.383 -24.786,-127.123 -1.941,-13.566 -2.777,-44.58 -2.462,-50.974 0.043,-0.863 0.591,-1.62 1.42,-1.864 7.79,-2.297 20.491,-0.743 36.36,-2.855 1.549,-0.206 -2.224,-2.742 -5.746,-7.373 -13.604,-14.732 -50.068,-40.646 -12.216,-47.525 19.225,-3.494 41.593,11.318 51.958,26.138 6.429,9.192 4.933,28.647 4.933,28.647 8.099,3.308 24.741,3.276 39.127,5.603 38.186,6.178 54.139,9.09 84.909,9.091 0.009,0 0.017,-0.007 0.017,-0.016 -0.679,-12.531 -6.897,-36.925 0.169,-47.372 7.39,-10.925 40.616,-18.15 53.337,-17.584 47.634,2.122 -5.517,33.516 -16.684,51.114 -0.56,3.234 -0.048,11.34 -0.042,11.441 23.071,2.987 32.824,-7.113 33.157,6.016 0.204,8.052 -0.324,27.148 -0.333,34.243 l -33.079,397.698 c 13.442,4.823 36.063,-45.154 45.575,-58.838 22.676,-32.62 36.955,-13.655 58.737,9.098 7.994,-127.715 14.186,-275.722 12.261,-350.01 l 15.491,0.702 c 3.146,90.663 -6.157,249.03 -15.419,375.959 0.119,0.552 0.421,1.208 0.555,1.618 C -14.524,-37.735 -5.011,-8.979 0,0"
         style="fill:#ffffff;fill-opacity:1;fill-rule:nonzero;stroke:none;stroke-width:4.44556"
         id="path1680" />
    </g>
  </g>
</svg>
